# xmcd
#
# Track frame offsets:
#	150
#	17955
#	34677
#	50134
#	63134
#	77626
#	93514
#	106779
#	122976
#	142004
#	158571
#	176379
#	193101
#	208484
#	221483
#	235973
#	251863
#	265128
#	281331
#	300361
#
# Disc length: 4223 seconds
#
# Revision: 0
# Processed by: cddbd v1.5.1PL2 Copyright (c) Steve Scherf et al.
# Submitted via: audiograbber 1.83.01
#
DISCID=20107d14
DTITLE=Various Artist - THMBC06
DYEAR=1900
DGENRE=Country
TTITLE0=Rascal Flatts - Prayin' For Daylight (Vocals)
TTITLE1=Lonestar - What About Now (Vocals)
TTITLE2=Rimes, LeAnn - I Need You (Vocals)
TTITLE3=Jackson, Alan - It Must Be Love (Vocals)
TTITLE4=Messina, Jo Dee - That's The Way (Vocals)
TTITLE5=McBride, Martina - There You Are (Vocals)
TTITLE6=Tippin, Aaron - Kiss This (Vocals)
TTITLE7=Loveles, Patty - Thats The Kind Of Mood I'm In (Vocals)
TTITLE8=Tritt, Travis - Best Of Intentions (Vocals)
TTITLE9=Dixie Chicks, The - Without You (Vocals)
TTITLE10=Rascal Flatts - Prayin' For Daylight
TTITLE11=Lonestar - What About Now
TTITLE12=Rimes, LeAnn - I Need You
TTITLE13=Jackson, Alan - It Must Be Love
TTITLE14=Messina, Jo Dee - That's The Way
TTITLE15=McBride, Martina - There You Are
TTITLE16=Tippin, Aaron - Kiss This
TTITLE17=Loveles, Patty - Thats The Kind Of Mood I'm In
TTITLE18=Tritt, Travis - Best Of Intentions
TTITLE19=Dixie Chicks, The - Without You
EXTD=
EXTT0=
EXTT1=
EXTT2=
EXTT3=
EXTT4=
EXTT5=
EXTT6=
EXTT7=
EXTT8=
EXTT9=
EXTT10=
EXTT11=
EXTT12=
EXTT13=
EXTT14=
EXTT15=
EXTT16=
EXTT17=
EXTT18=
EXTT19=
PLAYORDER=
